# AST/ASF file generated using VICON BodyLanguage
# -----------------------------------------------
:version 1.10
:name VICON
:units
  mass 1.0
  length 0.45
  angle deg
:documentation
   .ast/.asf automatically generated from VICON data using
   VICON BodyBuilder and BodyLanguage model FoxedUp or BRILLIANT.MOD
:root
   order TX TY TZ RX RY RZ
   axis XYZ
   position 0 0 0  
   orientation 0 0 0 
:bonedata
  begin
     id 1 
     name lhipjoint
     direction 0.70531 -0.63749 0.310071 
     length 2.59589 
     axis 0 0 0  XYZ
  end
  begin
     id 2 
     name lfemur
     direction 0.34202 -0.939693 0  
     length 6.19797  
     axis 0 0 20  XYZ
    dof rx ry rz
    limits (-160.0 20.0)
           (-70.0 70.0)
           (-60.0 70.0)
  end
  begin
     id 3 
     name ltibia
     direction 0.34202 -0.939693 0   
     length 7.80054   
     axis 0 0 20   XYZ
    dof rx
    limits (-10.0 170.0)
  end
  begin
     id 4 
     name lfoot
     direction 0.0828572 -0.227648 0.970212   
     length 1.88124   
     axis -90 7.62852e-016 20   XYZ
    dof rx rz
    limits (-45.0 90.0)
           (-70.0 20.0)
  end
  begin
     id 5 
     name ltoes
     direction 1.53544e-011 -4.219e-011 1   
     length 0.948015   
     axis -90 7.62852e-016 20   XYZ
    dof rx
    limits (-90.0 20.0)
  end
  begin
     id 6 
     name rhipjoint
     direction -0.730062 -0.614543 0.29891   
     length 2.69282  
     axis 0 0 0  XYZ 
  end
  begin
     id 7 
     name rfemur
     direction -0.34202 -0.939693 0   
     length 5.86298   
     axis 0 0 -20   XYZ
    dof rx ry rz
    limits (-160.0 20.0)
           (-70.0 70.0)
           (-70.0 60.0)
  end
  begin
     id 8 
     name rtibia
     direction -0.34202 -0.939693 0   
     length 7.72374   
     axis 0 0 -20   XYZ
    dof rx
    limits (-10.0 170.0)
 end
 begin
     id 9 
     name rfoot
     direction -0.0967421 -0.265797 0.959163   
     length 2.02368  
     axis -90 -7.62852e-016 -20   XYZ
    dof rx rz
    limits (-45.0 90.0)
           (-20.0 70.0)
  end
  begin
     id 10 
     name rtoes
     direction -1.53524e-011 -4.21768e-011 1   
     length 1.01373   
     axis -90 -7.62852e-016 -20   XYZ
    dof rx
    limits (-90.0 20.0)
  end
  begin
     id 11 
     name lowerback
     direction 0.00561702 0.992801 -0.119643   
     length 2.02816   
     axis 0 0 0   XYZ
    dof rx ry rz
    limits (-20.0 45.0)
           (-30.0 30.0)
           (-30.0 30.0)
  end
  begin
     id 12 
     name upperback
     direction 0.00155544 0.995735 -0.0922509   
     length 2.02265   
     axis 0 0 0   XYZ
    dof rx ry rz
    limits (-20.0 45.0)
           (-30.0 30.0)
           (-30.0 30.0)
  end
  begin
     id 13 
     name thorax
     direction -0.000937535 0.999317 -0.0369292   
     length 2.04823   
     axis 0 0 0   XYZ
    dof rx ry rz
    limits (-20.0 45.0)
           (-30.0 30.0)
           (-30.0 30.0)
  end
  begin
     id 14 
     name lowerneck
     direction -0.0813151 0.981659 0.172436   
     length 1.8875   
     axis 0 0 0   XYZ
    dof rx ry rz
    limits (-20.0 45.0)
           (-30.0 30.0)
           (-30.0 30.0)
  end
  begin
     id 15 
     name upperneck
     direction 0.119359 0.955672 -0.269157   
     length 1.92801   
     axis 0 0 0   XYZ
    dof rx ry rz
    limits (-20.0 45.0)
           (-30.0 30.0)
           (-30.0 30.0)
  end
  begin
     id 16
     name head
     direction 0.0421007 0.992672 -0.113268  
     length 1.95809  
     axis 0 0 0   XYZ
    dof rx ry rz
    limits (-20.0 45.0)
           (-30.0 30.0)
           (-30.0 30.0)
  end
  begin
     id 17 
     name lclavicle
     direction 0.944093 0.32865 -0.0260136  
     length 3.84992  
     axis 0 0 0   XYZ
    dof ry rz
    limits (-20.0 10.0)
           (0.0 20.0)
  end
  begin
     id 18 
     name lhumerus
     direction 1 -4.48979e-011 -1.27712e-029   
     length 5.53593   
     axis 180 -30 -90   XYZ
    dof rx ry rz
    limits (-60.0 90.0)
           (-90.0 90.0)
           (-90.0 90.0)
  end
  begin
     id 19
     name lradius
     direction 1 -4.48966e-011 1.00051e-028   
     length 3.13345   
     axis 180 -30 -90   XYZ
    dof rx
    limits (-10.0 170.0)
  end
  begin
     id 20
     name lwrist
     direction 1 -4.4896e-011 2.56952e-028   
     length 1.56673   
     axis -5.12785e-016 90 90   XYZ
    dof ry
    limits (-180.0 0.0)
 end
  begin
     id 21 
     name lhand
     direction 1 -4.48934e-011 5.13905e-028   
     length 0.713374   
     axis -3.27915e-016 90 90   XYZ
    dof rx rz
    limits (-90.0 90.0)
           (-45.0 45.0)
  end
  begin
     id 22 
     name lfingers
     direction 1 -4.48973e-011 1.02781e-027   
     length 0.575141   
     axis -6.5583e-016 90 90   XYZ
    dof rx
    limits (0.0 90.0)
  end
  begin
     id 23
     name lthumb
     direction 0.707107 -6.34883e-011 0.707107   
     length 0.82579   
     axis -90 45 2.85299e-015   XYZ
    dof rx rz
    limits (-45.0 45.0)
           (-45.0 45.0)
  end
  begin
     id 24 
     name rclavicle
     direction -0.936895 0.34884 0.0232243   
     length 3.53304  
     axis 0 0 0   XYZ 
    dof ry rz
    limits (-10.0 20.0)
           (-20.0 0.0)
  end
  begin
     id 25 
     name rhumerus
     direction -1 -4.48965e-011 1.05514e-027  
     length 5.4685   
     axis 180 30 90   XYZ
    dof rx ry rz
    limits (-90.0 60.0)
           (-90.0 90.0)
           (-90.0 90.0)
  end
  begin
     id 26 
     name rradius
     direction -1 -4.48964e-011 -1.1079e-027   
     length 3.22411   
     axis 180 30 90   XYZ
    dof rx
    limits (-10.0 170.0)
  end
  begin
     id 27 
     name rwrist
     direction -1 -4.48973e-011 2.56952e-028   
     length 1.61206   
     axis -5.12785e-016 -90 -90   XYZ
    dof ry
    limits (-180.0 0.0)
  end
  begin
     id 28
     name rhand
     direction -1 -4.48957e-011 5.13905e-028   
     length 0.74528   
     axis -3.27915e-016 -90 -90   XYZ
    dof rx rz
    limits (-90.0 90.0)
           (-45.0 45.0)
  end
  begin
     id 29
     name rfingers
     direction -1 -4.4901e-011 1.02781e-027   
     length 0.600864   
     axis -6.5583e-016 -90 -90   XYZ
    dof rx
    limits (0.0 90.0)
  end
  begin
     id 30
     name rthumb
     direction -0.707107 -6.34972e-011 0.707107   
     length 0.862724   
     axis -90 -45 -2.85299e-015   XYZ
    dof rx rz
    limits (-45.0 45.0)
           (-45.0 45.0)
  end
:hierarchy
  begin
    root lhipjoint rhipjoint lowerback
    lhipjoint lfemur
    lfemur ltibia
    ltibia lfoot
    lfoot ltoes
    rhipjoint rfemur
    rfemur rtibia
    rtibia rfoot
    rfoot rtoes
    lowerback upperback
    upperback thorax
    thorax lowerneck lclavicle rclavicle
    lowerneck upperneck
    upperneck head
    lclavicle lhumerus
    lhumerus lradius
    lradius lwrist
    lwrist lhand lthumb
    lhand lfingers
    rclavicle rhumerus
    rhumerus rradius
    rradius rwrist
    rwrist rhand rthumb
    rhand rfingers
  end

#!OML:ASF G:\Work\Work\Patient Classification 1\Liu\Session 1\Liu.ASF
:FULLY-SPECIFIED
:DEGREES
429
root -7.99373 15.6025 -20.9187 -346.779 -9.78303 -0.203997
lowerback 5.49649 -2.41761 -0.764083
upperback 0.683248 -3.20273 2.59713
thorax -2.18334 -1.58446 3.33457
lowerneck -26.408 1.48994 -5.20359
upperneck 23.8025 3.19093 3.46452
head 12.0619 1.40943 2.73623
rclavicle 9.14409e-015 -2.38542e-014
rhumerus -57.6484 19.2764 -93.6134
rradius 93.8982
rwrist -10.0695
rhand -31.9936 36.408
rfingers 7.12502
rthumb -5.24257 6.49283
lclavicle 9.14409e-015 -2.38542e-014
lhumerus -43.1066 -28.4097 100.198
lradius 99.8398
lwrist 22.0159
lhand -29.0803 42.7955
lfingers 7.12502
lthumb -2.42924 72.7614
rfemur -51.7397 1.46241 17.2157
rtibia 67.8368
rfoot -23.1793 -8.15557
rtoes -10.1233
lfemur 2.68424 0.0781254 -35.3184
ltibia 23.0174
lfoot -4.18126 -5.1957
ltoes 13.5818
430
root -8.04648 15.6884 -20.5623 -346.769 -9.39699 0.0239548
lowerback 5.34323 -2.73021 -0.978788
upperback 0.566407 -3.62883 2.70257
thorax -2.17136 -1.7945 3.58758
lowerneck -26.6739 1.81049 -4.8444
upperneck 24.125 3.63392 3.05286
head 12.2324 1.57373 2.61205
rclavicle 3.47873e-015 -1.15295e-014
rhumerus -58.2967 18.6641 -93.0605
rradius 93.8233
rwrist -10.2323
rhand -31.8123 35.8655
rfingers 7.12502
rthumb -5.06749 5.94609
lclavicle 3.47873e-015 -1.15295e-014
lhumerus -43.1476 -29.067 100.172
lradius 100.86
lwrist 21.4206
lhand -28.9585 41.9896
lfingers 7.12502
lthumb -2.31163 71.9568
rfemur -51.577 1.65566 16.9668
rtibia 64.258
rfoot -23.0418 -7.20726
rtoes -11.4482
lfemur 4.59417 0.11779 -35.2674
ltibia 21.3215
lfoot -1.10165 -3.34252
ltoes 8.46073
431
root -8.10094 15.7852 -20.21 -346.831 -9.41974 -0.064024
lowerback 5.25534 -2.90342 -1.0226
upperback 0.567406 -3.86026 2.82813
thorax -2.09389 -1.91095 3.75122
lowerneck -26.8424 2.02393 -4.58205
upperneck 24.3486 3.91778 2.78368
head 12.3517 1.67993 2.52596
rclavicle -1.70955e-014 5.96354e-015
rhumerus -58.8453 18.1227 -92.5609
rradius 93.8787
rwrist -10.4743
rhand -31.5225 35.1276
rfingers 7.12502
rthumb -4.78765 5.20168
lclavicle -1.70955e-014 5.96354e-015
lhumerus -43.2134 -29.7916 100.094
lradius 101.571
lwrist 19.9059
lhand -29.0129 41.0929
lfingers 7.12502
lthumb -2.36419 71.0595
rfemur -51.3441 2.32147 17.0715
rtibia 60.4754
rfoot -22.3572 -7.31666
rtoes -16.8682
lfemur 6.35523 0.571196 -34.9772
ltibia 19.8175
lfoot 2.16895 -1.31469
ltoes 3.45203
432
root -8.14642 15.8621 -19.8546 -346.806 -9.26717 -0.165991
lowerback 4.94013 -3.12784 -0.81108
upperback 0.609559 -4.14808 2.94934
thorax -1.85995 -2.0603 3.75317
lowerneck -26.937 2.17641 -4.51063
upperneck 24.3884 4.15914 2.61642
head 12.3807 1.76812 2.49573
rclavicle -9.86966e-014 5.96354e-015
rhumerus -59.283 17.7279 -91.9815
rradius 93.8655
rwrist -10.8279
rhand -31.7986 34.7115
rfingers 7.12502
rthumb -5.0543 4.79175
lclavicle -9.86966e-014 5.96354e-015
lhumerus -43.0869 -30.8036 99.9834
lradius 101.925
lwrist 18.9298
lhand -29.4922 40.7745
lfingers 7.12502
lthumb -2.82706 70.7355
rfemur -50.8942 2.86124 17.1473
rtibia 56.5551
rfoot -21.5815 -7.09416
rtoes -20.0328
lfemur 7.89717 0.880855 -34.6696
ltibia 18.5427
lfoot 5.48821 0.968378
ltoes 1.85842
433
root -8.19212 15.9139 -19.4939 -346.806 -9.02848 0.0377413
lowerback 4.65498 -3.37867 -0.820162
upperback 0.497696 -4.48222 3.01708
thorax -1.78649 -2.22742 3.83159
lowerneck -26.7869 2.38689 -4.63793
upperneck 24.48 4.51356 2.58071
head 12.3699 1.90551 2.56366
rclavicle 6.65929e-014 -7.15625e-015
rhumerus -60.1259 17.3297 -91.4132
rradius 94.0322
rwrist -11.1152
rhand -32.2605 34.1926
rfingers 7.12502
rthumb -5.50027 4.28395
lclavicle 6.65929e-014 -7.15625e-015
lhumerus -43.1918 -31.5232 99.9514
lradius 102.276
lwrist 18.565
lhand -30.0409 40.4404
lfingers 7.12502
lthumb -3.35694 70.3937
rfemur -50.2026 3.1785 16.8732
rtibia 52.6601
rfoot -20.7905 -5.84564
rtoes -19.0872
lfemur 9.32192 1.14585 -34.6502
ltibia 17.5615
lfoot 8.31165 3.35716
ltoes 2.93792
434
root -8.2467 15.9561 -19.1388 -346.515 -9.65297 0.32467
lowerback 4.16739 -3.31081 -1.298
upperback 0.252309 -4.41483 3.02382
thorax -1.73483 -2.18929 4.07853
lowerneck -26.6037 2.52768 -4.75439
upperneck 24.6639 4.74779 2.59966
head 12.393 1.99599 2.63154
rclavicle -5.94366e-014 5.1684e-015
rhumerus -61.0367 16.8791 -90.8877
rradius 94.3062
rwrist -11.4169
rhand -32.4077 33.5472
rfingers 7.12502
rthumb -5.64238 3.64233
lclavicle -5.94366e-014 5.1684e-015
lhumerus -43.0171 -32.4505 99.607
lradius 102.323
lwrist 18.6442
lhand -29.9124 39.978
lfingers 7.12502
lthumb -3.23291 69.9332
rfemur -50.1261 4.09996 16.3316
rtibia 48.9443
rfoot -19.3078 -3.94065
rtoes -16.4991
lfemur 10.078 2.05741 -34.919
ltibia 17.0274
lfoot 10.5566 5.60536
ltoes 3.53262
435
root -8.29028 16.0062 -18.7824 -346.326 -9.78573 0.62293
lowerback 3.82608 -3.33072 -1.48758
upperback 0.0801667 -4.44913 2.97883
thorax -1.70766 -2.20375 4.12309
lowerneck -26.8795 2.56328 -4.69132
upperneck 25.0382 4.816 2.52759
head 12.5962 2.00943 2.62459
rclavicle -4.57205e-014 3.37934e-014
rhumerus -61.5883 16.3714 -90.3343
rradius 94.4092
rwrist -11.8812
rhand -32.4683 33.2444
rfingers 7.12502
rthumb -5.70092 3.34107
lclavicle -4.57205e-014 3.37934e-014
lhumerus -42.3059 -34.8471 99.1426
lradius 101.741
lwrist 19.5195
lhand -35.0331 38.7443
lfingers 7.12502
lthumb -8.17668 68.5661
rfemur -49.9447 4.63932 15.7671
rtibia 45.5128
rfoot -17.6364 -2.32958
rtoes -14.0194
lfemur 10.8267 2.50561 -35.0947
ltibia 16.7773
lfoot 12.4384 8.1136
ltoes 5.86343
436
root -8.32693 16.0627 -18.4262 -346.18 -9.11204 0.927402
lowerback 3.60995 -3.63094 -1.45009
upperback -0.157054 -4.84401 3.03374
thorax -1.79741 -2.39727 4.16996
lowerneck -27.0542 2.65938 -4.70903
upperneck 25.4622 4.99855 2.46094
head 12.794 2.06431 2.65229
rclavicle 1.70955e-014 -2.78299e-015
rhumerus -62.1878 16.113 -89.8035
rradius 94.4961
rwrist -12.3316
rhand -33.1838 32.5965
rfingers 7.12502
rthumb -6.39169 2.71298
lclavicle 1.70955e-014 -2.78299e-015
lhumerus -43.2293 -33.1545 99.2348
lradius 102.664
lwrist 18.1315
lhand -33.2041 38.4645
lfingers 7.12502
lthumb -6.41124 68.3475
rfemur -49.5994 4.54819 15.3482
rtibia 42.5647
rfoot -16.1339 -1.37716
rtoes -11.9216
lfemur 11.6314 2.27414 -35.0597
ltibia 16.5243
lfoot 13.6662 10.6318
ltoes 7.21512
437
root -8.36767 16.0949 -18.0724 -346.035 -9.34449 1.30088
lowerback 3.26417 -3.72122 -1.8592
upperback -0.387957 -4.97814 3.08394
thorax -1.79174 -2.45832 4.43942
lowerneck -26.9203 2.79148 -4.82626
upperneck 25.7126 5.25475 2.39325
head 12.8566 2.14753 2.69524
rclavicle -6.65929e-014 2.82274e-014
rhumerus -62.8449 16.2061 -89.2206
rradius 94.5347
rwrist -12.8645
rhand -33.4828 32.597
rfingers 7.12502
rthumb -6.68032 2.72236
lclavicle -6.65929e-014 2.82274e-014
lhumerus -43.6507 -32.5513 99.0531
lradius 102.943
lwrist 17.7556
lhand -30.1443 39.9899
lfingers 7.12502
lthumb -3.45686 69.9416
rfemur -49.557 4.424 15.1468
rtibia 40.2057
rfoot -13.9211 -0.515207
rtoes -12.5113
lfemur 12.0665 2.88181 -35.3338
ltibia 16.5859
lfoot 14.3894 12.3193
ltoes 3.92254
438
root -8.40588 16.1125 -17.6973 -346.364 -8.96479 2.03919
lowerback 3.01544 -3.99103 -2.30559
upperback -0.417074 -5.3561 2.95056
thorax -1.62103 -2.64692 4.54318
lowerneck -26.9318 2.86128 -4.81008
upperneck 25.9301 5.3693 2.34082
head 12.9444 2.18424 2.70026
rclavicle -4.37326e-015 -1.86858e-014
rhumerus -63.2252 16.0774 -88.5344
rradius 94.2948
rwrist -13.3204
rhand -32.215 34.0062
rfingers 7.12502
rthumb -5.45627 4.09645
lclavicle -4.37326e-015 -1.86858e-014
lhumerus -43.7746 -33.3551 98.8589
lradius 102.652
lwrist 18.21
lhand -29.647 40.662
lfingers 7.12502
lthumb -2.97654 70.621
rfemur -48.8803 3.44299 14.8682
rtibia 38.4942
rfoot -11.9397 0.314304
rtoes -11.2778
lfemur 12.7353 3.42189 -35.6635
ltibia 17.3833
lfoot 15.5618 13.6829
ltoes 3.26733
439
root -8.44969 16.1179 -17.334 -346.402 -8.7935 2.84142
lowerback 2.52376 -4.09353 -2.9054
upperback -0.451112 -5.51021 2.74354
thorax -1.33082 -2.72568 4.62698
lowerneck -27.0069 2.84541 -4.80252
upperneck 26.0005 5.33412 2.38995
head 12.9876 2.17419 2.71635
rclavicle -7.2954e-014 -7.15625e-015
rhumerus -63.3575 15.7514 -87.9045
rradius 94.2145
rwrist -13.4046
rhand -31.3512 34.5447
rfingers 7.12502
rthumb -4.62228 4.61512
lclavicle -7.2954e-014 -7.15625e-015
lhumerus -43.4021 -35.6124 98.6472
lradius 101.954
lwrist 19.5643
lhand -31.1549 40.776
lfingers 7.12502
lthumb -4.43267 70.7097
rfemur -48.7272 2.83678 14.3476
rtibia 37.3793
rfoot -10.8613 1.04146
rtoes -10.7716
lfemur 12.6148 3.97182 -36.1572
ltibia 18.9653
lfoot 16.3621 15.1479
ltoes 4.96781
440
root -8.4917 16.1123 -16.992 -346.471 -8.93867 3.44738
lowerback 2.31753 -4.08048 -3.42984
upperback -0.472169 -5.50635 2.62486
thorax -1.2003 -2.72296 4.77971
lowerneck -27.0871 2.74871 -5.09111
upperneck 25.9831 5.26891 2.56579
head 12.9839 2.14255 2.82163
rclavicle -3.83654e-014 6.36111e-015
rhumerus -63.3875 15.7373 -87.2977
rradius 94.3671
rwrist -13.2884
rhand -30.954 34.193
rfingers 7.12502
rthumb -4.23874 4.2554
lclavicle -3.83654e-014 6.36111e-015
lhumerus -43.9694 -34.2815 98.5128
lradius 102.195
lwrist 19.0285
lhand -30.7605 39.8526
lfingers 7.12502
lthumb -4.05184 69.7938
rfemur -48.6334 2.65083 13.9587
rtibia 36.7567
rfoot -10.7804 1.44298
rtoes -9.05421
lfemur 11.9636 4.53739 -36.6559
ltibia 21.2917
lfoot 16.4477 16.0978
ltoes 4.23664
441
root -8.53013 16.0958 -16.6475 -346.715 -8.73874 3.88251
lowerback 2.19685 -4.17057 -3.62857
upperback -0.413157 -5.63004 2.53621
thorax -1.04872 -2.78859 4.7867
lowerneck -27.1224 2.62348 -5.42886
upperneck 25.9851 5.1642 2.79802
head 12.9782 2.09653 2.94936
rclavicle 2.88238e-014 -9.54166e-015
rhumerus -63.2877 15.8012 -86.7448
rradius 94.456
rwrist -13.1054
rhand -30.2415 33.9624
rfingers 7.12502
rthumb -3.55071 4.01224
lclavicle 2.88238e-014 -9.54166e-015
lhumerus -44.1523 -34.044 98.215
lradius 101.957
lwrist 19.2455
lhand -30.6754 39.4732
lfingers 7.12502
lthumb -3.96973 69.4159
rfemur -48.0722 2.1734 13.9391
rtibia 36.4642
rfoot -10.8798 1.09685
rtoes -11.7226
lfemur 11.1164 4.88695 -36.8712
ltibia 24.515
lfoot 15.8204 16.5451
ltoes 4.27925
